<svg width="750" height="40" viewBox="0 0 750 40" fill="none" xmlns="http://www.w3.org/2000/svg">
<mask id="mask0" mask-type="alpha" maskUnits="userSpaceOnUse" x="0" y="0" width="750" height="40">
<rect width="750" height="40" transform="matrix(-1 0 0 1 750 0)" fill="#C4C4C4"/>
</mask>
<g mask="url(#mask0)">
<path d="M-375 0L-312.616 13.3085C-230.127 30.9063 -144.859 30.9716 -62.343 13.5001C-21.2367 4.79651 21.2367 4.79651 62.343 13.5001C144.859 30.9716 230.127 30.9063 312.616 13.3085L375 0H0H-375Z" fill="white"/>
<path d="M0 0L62.3838 13.3085C144.873 30.9063 230.141 30.9716 312.657 13.5001C353.763 4.79651 396.237 4.79651 437.343 13.5001C519.859 30.9716 605.127 30.9063 687.616 13.3085L750 0H375H0Z" fill="white"/>
<path d="M375 0L437.384 13.3085C519.873 30.9063 605.141 30.9716 687.657 13.5001C728.763 4.79651 771.237 4.79651 812.343 13.5001C894.859 30.9716 980.127 30.9063 1062.62 13.3085L1125 0H750H375Z" fill="white"/>
</g>
</svg>
